<?xml version="1.0" encoding="UTF-8"?>
<!-- Project-authored outline stroke data for U+003F and fullwidth alias U+FF1F. -->
<svg xmlns="http://www.w3.org/2000/svg" viewBox="0 0 109 109">
  <path id="custom:0003f-s1" d="M34.12,28.41 C35.21,22.46 37.79,17.96 41.85,14.92 C45.30,12.30 49.55,10.99 54.59,10.99 C60.51,10.99 65.23,12.73 68.74,16.21 C71.80,19.27 73.34,23.21 73.34,28.01 C73.34,31.40 72.47,34.48 70.73,37.25 C69.16,39.73 66.50,42.63 62.72,45.96 C59.66,48.79 57.68,51.40 56.80,53.79 C56.03,55.94 55.62,59.16 55.56,63.43 L50.87,63.43 L50.87,61.00 C50.87,56.58 51.52,53.02 52.82,50.34 C53.91,48.10 55.83,45.67 58.57,43.05 C62.22,39.54 64.64,36.66 65.82,34.42 C66.79,32.57 67.28,30.43 67.28,28.01 C67.28,24.15 66.01,21.11 63.48,18.90 C61.24,16.96 58.27,15.99 54.59,15.99 C46.39,15.99 41.50,20.63 39.91,29.91 L34.12,28.41" />
  <path id="custom:0003f-s2" d="M48.71,74.39 L57.77,74.39 L57.77,83.37 L48.71,83.37 L48.71,74.39" />
</svg>
