<?xml version="1.0" encoding="UTF-8"?>
<!-- Reviewed centerline stroke data for U+0CA2. -->
<svg xmlns="http://www.w3.org/2000/svg" viewBox="0 0 109 109">
  <path id="custom:00ca2-s1" d="M86.62,1.82 L90.98,7.46 L91.53,12.74 L89.89,17.83 L84.80,21.65 L73.15,23.29 L75.34,28.02 L84.07,37.67 L85.34,43.49" />
  <path id="custom:00ca2-s2" d="M73.88,22.75 L43.13,22.38 L33.66,23.84 L31.66,28.21 L20.20,38.94 L15.83,46.95 L13.65,55.32 L13.65,66.60 L16.74,74.61 L22.02,79.70 L29.84,82.07 L39.12,80.79 L44.22,77.88 L51.50,68.78 L54.23,67.33" />
  <path id="custom:00ca2-s3" d="M14.19,22.38 L32.21,22.38 L33.66,24.02" />
  <path id="custom:00ca2-s4" d="M77.70,29.84 L78.79,30.93" />
  <path id="custom:00ca2-s5" d="M54.23,61.51 L54.23,67.33 L56.77,68.78 L60.23,74.24 L65.51,78.97 L73.70,81.89 L83.71,81.16 L90.08,77.88 L95.53,69.69 L96.26,62.23 L93.71,52.95 L88.62,50.77 L86.98,56.77 L84.25,61.14 L81.16,63.33 L75.52,64.05 L71.70,63.14 L68.06,60.05 L66.78,57.50 L66.60,51.86 L67.69,48.22 L70.42,45.13 L77.52,42.94 L85.34,43.31 L87.35,46.04 L88.80,50.59 L88.07,51.50" />
  <path id="custom:00ca2-s6" d="M68.24,60.41 L69.88,62.05" />
  <path id="custom:00ca2-s7" d="M46.95,75.34 L45.49,76.79" />
  <path id="custom:00ca2-s8" d="M54.05,83.34 L54.23,102.63 L49.68,105.91" />
</svg>
