<?xml version="1.0" encoding="UTF-8"?>
<!-- Reviewed centerline stroke data for U+0CA0. -->
<svg xmlns="http://www.w3.org/2000/svg" viewBox="0 0 109 109">
  <path id="custom:00ca0-s1" d="M79.52,2.00 L82.25,4.55 L83.71,8.19 L83.16,16.74 L79.70,20.56 L71.51,22.38 L70.60,23.84 L72.61,28.21 L77.88,33.30 L82.07,40.22 L84.07,47.68 L84.07,57.32 L82.07,64.24 L78.61,70.24 L68.97,78.61 L58.59,81.89 L45.86,80.98 L34.57,74.79 L27.84,66.24 L24.75,56.41 L25.29,44.95 L28.93,36.39 L36.39,28.21 L38.40,23.47" />
  <path id="custom:00ca0-s2" d="M80.25,2.18 L81.34,3.28" />
  <path id="custom:00ca0-s3" d="M24.38,22.38 L37.30,22.38 L38.40,23.47 L45.31,22.38 L63.69,22.38 L70.06,23.47 L71.51,22.56" />
</svg>
