<?xml version="1.0" encoding="UTF-8"?>
<!-- Reviewed centerline stroke data for U+0CA1. -->
<svg xmlns="http://www.w3.org/2000/svg" viewBox="0 0 109 109">
  <path id="custom:00ca1-s1" d="M86.62,1.82 L90.98,7.46 L91.53,12.74 L89.89,17.83 L84.80,21.65 L73.15,23.29 L75.15,27.84 L84.07,37.67 L85.34,43.49" />
  <path id="custom:00ca1-s2" d="M14.19,22.38 L32.21,22.38 L33.66,23.84 L44.04,22.38 L73.88,22.75" />
  <path id="custom:00ca1-s3" d="M33.66,23.84 L31.66,28.39 L25.48,33.12 L19.65,39.85 L14.01,53.14 L13.28,63.14 L14.19,68.97 L17.11,75.15 L21.65,79.52 L29.84,82.07 L39.12,80.79 L44.22,77.88 L51.32,69.15 L54.41,67.51 L56.77,68.78 L63.14,77.16 L69.15,80.79 L78.25,82.07 L85.34,80.61 L91.71,76.25 L95.53,69.69 L96.26,62.23 L93.71,52.95 L88.62,50.77 L85.34,59.87 L82.07,62.96 L78.07,64.05 L70.42,62.42 L67.33,58.96 L66.42,53.14 L67.51,48.59 L70.42,45.13 L77.52,42.94 L85.34,43.31 L87.35,46.04 L88.80,50.59 L88.07,51.50" />
  <path id="custom:00ca1-s4" d="M68.24,60.41 L69.88,62.05" />
  <path id="custom:00ca1-s5" d="M54.23,61.51 L54.23,67.51" />
  <path id="custom:00ca1-s6" d="M47.13,75.15 L45.49,76.79" />
</svg>
