<?xml version="1.0" encoding="UTF-8"?>
<!-- Reviewed centerline stroke data for U+0E51. -->
<svg xmlns="http://www.w3.org/2000/svg" viewBox="0 0 109 109">
  <path id="custom:00e51-s1" d="M56.96,85.71 L60.96,80.61 L60.41,72.42 L56.96,68.78 L50.41,68.42 L45.67,72.61 L45.31,78.79 L48.40,82.98 L55.14,84.25 L56.59,85.71 L55.32,90.80 L50.04,94.81 L43.13,96.26 L36.39,95.53 L31.30,92.80 L26.57,86.44 L24.38,76.06 L25.66,66.60 L29.12,60.05 L38.40,52.77 L52.95,49.68 L68.60,52.04 L78.25,58.23 L82.07,63.51 L84.07,69.15 L83.71,82.43 L80.25,89.53 L71.33,95.35 L68.97,99.36" />
  <path id="custom:00e51-s2" d="M32.39,56.77 L30.93,58.23" />
  <path id="custom:00e51-s3" d="M47.86,69.88 L46.77,70.97" />
  <path id="custom:00e51-s4" d="M30.21,91.53 L31.30,92.62" />
</svg>
