<?xml version="1.0" encoding="UTF-8"?>
<!-- Reviewed centerline stroke data for U+10DA. -->
<svg xmlns="http://www.w3.org/2000/svg" viewBox="0 0 109 109">
  <path id="custom:010da-s1" d="M40.03,59.32 L36.21,57.14 L34.39,53.32 L30.39,49.31 L24.02,47.49 L16.74,49.31 L10.74,57.14 L8.55,69.33 L9.83,81.34 L15.65,93.35 L24.93,101.36 L26.20,104.63 L24.20,106.63" />
  <path id="custom:010da-s2" d="M39.67,68.78 L39.67,59.50 L42.94,57.32 L45.86,51.86 L51.13,48.04 L55.32,47.49 L61.87,49.31 L67.69,57.32 L70.97,59.50" />
  <path id="custom:010da-s3" d="M70.97,59.50 L74.24,57.32 L78.97,50.22 L82.98,48.04 L90.80,47.86 L97.35,52.23 L101.18,60.96 L102.09,72.24 L99.72,85.34 L94.99,94.08" />
  <path id="custom:010da-s4" d="M15.29,50.41 L14.01,51.68" />
  <path id="custom:010da-s5" d="M71.33,59.14 L70.97,68.97" />
  <path id="custom:010da-s6" d="M3.46,109.00 L23.84,106.82 L26.20,104.45 L55.50,109.00" />
</svg>
