<?xml version="1.0" encoding="UTF-8"?>
<!-- Reviewed centerline stroke data for U+10E6. -->
<svg xmlns="http://www.w3.org/2000/svg" viewBox="0 0 109 109">
  <path id="custom:010e6-s1" d="M81.70,83.89 L85.89,81.34 L86.98,67.33 L84.62,56.41 L79.70,49.86 L72.42,47.49 L66.24,48.59 L61.51,52.77 L58.78,58.05 L55.32,60.23 L52.04,58.05 L49.50,52.77 L45.13,48.77 L38.58,47.49 L32.39,49.13 L27.48,54.23 L24.93,60.41 L23.84,68.60 L24.38,77.88 L29.48,91.71 L39.85,101.54 L41.31,104.81 L39.49,106.63" />
  <path id="custom:010e6-s2" d="M55.68,60.05 L55.32,72.61" />
  <path id="custom:010e6-s3" d="M32.39,95.53 L35.12,98.26" />
  <path id="custom:010e6-s4" d="M18.74,109.00 L39.12,106.82 L41.13,104.81 L65.69,109.00" />
</svg>
