<?xml version="1.0" encoding="UTF-8"?>
<!-- Reviewed centerline stroke data for U+1416. -->
<svg xmlns="http://www.w3.org/2000/svg" viewBox="0 0 109 109">
  <path id="custom:01416-s1" d="M22.56,90.44 L22.56,32.39 L30.21,33.85 L73.15,54.95 L78.97,57.87 L80.98,61.32 L93.17,61.32" />
  <path id="custom:01416-s2" d="M80.98,61.32 L78.97,64.78 L74.61,66.96 L29.84,88.98 L22.56,90.44 L18.20,99.17" />
  <path id="custom:01416-s3" d="M22,2 C25,2 28,5 28,8 C28,11 25,14 22,14 C19,14 16,11 16,8 C16,5 19,2 22,2" />
  <path id="custom:01416-s4" d="M56,17 C59,17 62,20 62,23 C62,26 59,29 56,29 C53,29 50,26 50,23 C50,20 53,17 56,17" />
</svg>
