<?xml version="1.0" encoding="UTF-8"?>
<!-- Corrected centerline stroke data for U+14C6. -->
<svg xmlns="http://www.w3.org/2000/svg" viewBox="0 0 109 109">
  <path id="custom:014c6-s1" d="M20,95 L50,95 L50,75 C50,64 58,57 69,57 C80,57 88,65 88,76 C88,87 80,95 69,95 L50,95" />
  <path id="custom:014c6-s2" d="M59,31 C62,31 64,33 64,36 C64,39 62,41 59,41 C56,41 54,39 54,36 C54,33 56,31 59,31" />
  <path id="custom:014c6-s3" d="M79,31 C82,31 84,33 84,36 C84,39 82,41 79,41 C76,41 74,39 74,36 C74,33 76,31 79,31" />
</svg>
