<?xml version="1.0" encoding="UTF-8"?>
<!-- Reviewed centerline stroke data for U+161A. -->
<svg xmlns="http://www.w3.org/2000/svg" viewBox="0 0 109 109">
  <path id="custom:0161a-s1" d="M19.83,27.66 L22.02,50.59 L27.84,54.41 L32.94,68.60 L40.40,81.70 L47.86,89.89 L54.41,94.08 L62.42,96.26 L70.97,96.08 L78.43,93.35 L84.80,87.89 L91.17,74.79 L92.80,55.32 L91.71,46.58 L88.26,36.94 L82.80,30.39 L79.16,28.21 L68.78,26.20 L60.96,27.30 L54.59,30.75 L50.41,36.58 L49.13,42.40 L49.68,49.13 L51.68,54.05 L54.41,56.96 L60.05,59.32 L68.60,59.14 L71.51,57.87 L74.24,52.59" />
  <path id="custom:0161a-s2" d="M83.71,31.12 L85.53,32.94" />
  <path id="custom:0161a-s3" d="M22.02,50.59 L19.83,52.59 L19.83,94.99" />
  <path id="custom:0161a-s4" d="M22.02,50.59 L20.02,52.59" />
  <path id="custom:0161a-s5" d="M84.07,88.80 L82.61,90.26" />
</svg>
