<?xml version="1.0" encoding="UTF-8"?>
<!-- Reviewed centerline stroke data for U+161B. -->
<svg xmlns="http://www.w3.org/2000/svg" viewBox="0 0 109 109">
  <path id="custom:0161b-s1" d="M34.94,52.77 L37.67,57.87 L39.85,58.96 L47.86,59.50 L54.59,57.14 L57.68,53.68 L59.69,47.68 L59.87,41.31 L58.05,34.94 L53.68,30.03 L47.13,26.93 L37.85,26.39 L29.30,28.57 L23.47,33.30 L20.02,38.58 L17.83,44.76 L16.38,56.05 L16.74,68.06 L18.38,76.06 L24.75,88.26 L31.12,93.53 L38.21,96.08 L48.40,96.08 L54.59,94.26 L60.96,90.26 L68.42,82.25 L76.06,68.97 L81.34,54.41 L87.16,50.59 L89.35,27.84" />
  <path id="custom:0161b-s2" d="M87.16,50.59 L89.35,52.59 L89.35,94.99" />
</svg>
