<?xml version="1.0" encoding="UTF-8"?>
<!-- Reviewed centerline stroke data for U+1D25. -->
<svg xmlns="http://www.w3.org/2000/svg" viewBox="0 0 109 109">
  <path id="custom:01d25-s1" d="M54.5,34 C68.5,34 76,44.5 76,56.5 C76,68 67.5,77 54.5,82 C41.5,77 33,68 33,56.5 C33,44.5 40.5,34 54.5,34" />
  <path id="custom:01d25-s2" d="M54.5,42 C64,42 69,48 69,56.5 C69,64 64,70 54.5,74 C45,70 40,64 40,56.5 C40,48 45,42 54.5,42" />
  <path id="custom:01d25-s3" d="M54.5,82 C62,91 73,94 82,86" />
  <path id="custom:01d25-s4" d="M27,86 C36,94 47,91 54.5,82" />
</svg>
