<?xml version="1.0" encoding="UTF-8"?>
<!-- Reviewed centerline stroke data for U+221D. -->
<svg xmlns="http://www.w3.org/2000/svg" viewBox="0 0 109 109">
  <path id="custom:0221d-s1" d="M57.32,62.42 L58.23,61.51 L57.87,54.77 L66.60,44.95 L69.88,42.94 L73.70,42.04 L81.70,42.94 L83.89,44.22 L85.71,48.59" />
  <path id="custom:0221d-s2" d="M58.78,54.05 L57.68,54.95 L55.50,53.86 L51.50,47.86 L44.95,42.94 L38.58,42.40 L32.03,44.76 L27.48,50.41 L26.02,59.32 L28.39,67.69 L34.57,73.33 L40.94,74.43 L47.31,72.79 L58.05,61.51 L60.60,62.60 L66.96,70.97 L72.06,73.52 L81.70,72.61 L83.89,71.33 L85.71,66.78" />
  <path id="custom:0221d-s3" d="M31.30,45.31 L30.21,46.40" />
  <path id="custom:0221d-s4" d="M51.13,69.69 L49.68,71.15" />
</svg>
