<?xml version="1.0" encoding="UTF-8"?>
<!-- Corrected centerline stroke data for U+2234. -->
<svg xmlns="http://www.w3.org/2000/svg" viewBox="0 0 109 109">
  <path id="custom:02234-s1" d="M54,27 C58,27 61,30 61,34 C61,38 58,41 54,41 C50,41 47,38 47,34 C47,30 50,27 54,27" />
  <path id="custom:02234-s2" d="M27,72 C31,72 34,75 34,79 C34,83 31,86 27,86 C23,86 20,83 20,79 C20,75 23,72 27,72" />
  <path id="custom:02234-s3" d="M81,72 C85,72 88,75 88,79 C88,83 85,86 81,86 C77,86 74,83 74,79 C74,75 77,72 81,72" />
</svg>
