<?xml version="1.0" encoding="UTF-8"?>
<!-- Corrected centerline stroke data for U+2237. -->
<svg xmlns="http://www.w3.org/2000/svg" viewBox="0 0 109 109">
  <path id="custom:02237-s1" d="M33,39 C37,39 40,42 40,46 C40,50 37,53 33,53 C29,53 26,50 26,46 C26,42 29,39 33,39" />
  <path id="custom:02237-s2" d="M75,39 C79,39 82,42 82,46 C82,50 79,53 75,53 C71,53 68,50 68,46 C68,42 71,39 75,39" />
  <path id="custom:02237-s3" d="M33,77 C37,77 40,80 40,84 C40,88 37,91 33,91 C29,91 26,88 26,84 C26,80 29,77 33,77" />
  <path id="custom:02237-s4" d="M75,77 C79,77 82,80 82,84 C82,88 79,91 75,91 C71,91 68,88 68,84 C68,80 71,77 75,77" />
</svg>
