<?xml version="1.0" encoding="UTF-8"?>
<!-- Corrected centerline stroke data for U+2235. -->
<svg xmlns="http://www.w3.org/2000/svg" viewBox="0 0 109 109">
  <path id="custom:02235-s1" d="M27,29 C31,29 34,32 34,36 C34,40 31,43 27,43 C23,43 20,40 20,36 C20,32 23,29 27,29" />
  <path id="custom:02235-s2" d="M81,29 C85,29 88,32 88,36 C88,40 85,43 81,43 C77,43 74,40 74,36 C74,32 77,29 81,29" />
  <path id="custom:02235-s3" d="M54,72 C58,72 61,75 61,79 C61,83 58,86 54,86 C50,86 47,83 47,79 C47,75 50,72 54,72" />
</svg>
