<?xml version="1.0" encoding="UTF-8"?>
<!-- Reviewed centerline stroke data for U+224B. -->
<svg xmlns="http://www.w3.org/2000/svg" viewBox="0 0 109 109">
  <path id="custom:0224b-s1" d="M29.66,59.14 L32.39,57.32 L34.57,51.50 L40.03,48.04 L47.68,48.40 L59.87,55.32 L67.51,56.77 L73.15,54.59 L75.52,51.50 L76.61,47.31 L78.61,46.04" />
  <path id="custom:0224b-s2" d="M31.48,75.15 L36.39,67.15 L42.76,65.15 L48.95,66.24 L62.42,73.70 L70.06,73.70 L74.43,70.60 L76.61,64.78 L79.34,62.78" />
  <path id="custom:0224b-s3" d="M36.03,67.33 L34.94,68.42" />
  <path id="custom:0224b-s4" d="M30.39,93.35 L32.39,92.08 L36.21,84.62 L42.94,82.43 L49.31,83.71 L62.23,90.98 L69.51,91.17 L74.61,87.71 L76.61,82.07 L79.16,80.07" />
</svg>
