<?xml version="1.0" encoding="UTF-8"?>
<!-- Reviewed centerline stroke data for U+25CC. -->
<svg xmlns="http://www.w3.org/2000/svg" viewBox="0 0 109 109">
  <path id="custom:025cc-s1" d="M51.13,7.64 L57.50,7.64" />
  <path id="custom:025cc-s2" d="M35.85,11.10 L42.04,9.10" />
  <path id="custom:025cc-s3" d="M66.42,9.46 L72.97,10.92" />
  <path id="custom:025cc-s4" d="M27.48,15.47 L22.20,19.11" />
  <path id="custom:025cc-s5" d="M80.79,15.65 L86.80,19.11" />
  <path id="custom:025cc-s6" d="M15.65,25.84 L12.01,30.93" />
  <path id="custom:025cc-s7" d="M93.35,25.84 L96.81,32.03" />
  <path id="custom:025cc-s8" d="M7.46,39.31 L4.91,45.67" />
  <path id="custom:025cc-s9" d="M101.54,39.49 L102.99,46.22" />
  <path id="custom:025cc-s10" d="M4.00,54.77 L4.00,61.14" />
  <path id="custom:025cc-s11" d="M105.00,54.77 L104.81,61.51" />
  <path id="custom:025cc-s12" d="M5.46,70.42 L7.28,76.43" />
  <path id="custom:025cc-s13" d="M103.54,70.60 L101.54,76.61" />
  <path id="custom:025cc-s14" d="M12.01,85.34 L15.47,90.26" />
  <path id="custom:025cc-s15" d="M96.99,85.34 L93.35,90.44" />
  <path id="custom:025cc-s16" d="M22.20,96.99 L28.02,100.45" />
  <path id="custom:025cc-s17" d="M86.80,96.99 L81.52,100.63" />
  <path id="custom:025cc-s18" d="M35.85,105.00 L41.85,107.00" />
  <path id="custom:025cc-s19" d="M66.42,108.09 L73.15,105.00" />
  <path id="custom:025cc-s20" d="M50.77,108.09 L57.87,108.09" />
</svg>
