<?xml version="1.0" encoding="UTF-8"?>
<!-- Reviewed centerline stroke data for U+25CD. -->
<svg xmlns="http://www.w3.org/2000/svg" viewBox="0 0 109 109">
  <path id="custom:025cd-s1" d="M67.51,28.93 L72.61,30.03 L77.52,33.30 L80.79,40.22 L84.98,41.85 L87.35,45.86 L90.62,58.96 L90.08,68.78 L87.71,76.25 L84.80,81.16 L80.61,82.98 L79.16,87.89 L77.34,89.71 L72.42,92.99 L67.51,93.90 L66.24,95.72 L51.32,97.35 L44.40,96.26 L41.49,94.08 L41.49,28.57 L45.67,26.20 L52.95,25.29 L63.33,26.20 L67.51,28.75 L67.51,93.90" />
  <path id="custom:025cd-s2" d="M54.41,25.29 L54.41,97.35" />
  <path id="custom:025cd-s3" d="M41.49,28.93 L36.39,30.03 L31.12,33.66 L28.21,40.03 L29.48,41.49 L29.48,81.34 L28.21,82.98 L29.84,87.89 L32.57,90.26 L36.58,92.99 L41.85,93.53" />
  <path id="custom:025cd-s4" d="M28.21,40.22 L23.84,42.04 L20.74,48.04 L18.74,55.68 L18.38,64.24 L20.38,73.88 L23.47,80.25 L27.84,82.61 L29.30,81.70" />
  <path id="custom:025cd-s5" d="M80.79,40.22 L79.52,41.49 L79.52,81.52 L80.79,82.80" />
</svg>
