<?xml version="1.0" encoding="UTF-8"?>
<!-- Project-authored centerline stroke data for U+25CF. -->
<svg xmlns="http://www.w3.org/2000/svg" viewBox="0 0 109 109">
  <path id="custom:025cf-s1" d="M54.5,19.5 C73.83,19.5 89.5,35.17 89.5,54.5 C89.5,73.83 73.83,89.5 54.5,89.5 C35.17,89.5 19.5,73.83 19.5,54.5 C19.5,35.17 35.17,19.5 54.5,19.5" />
  <path id="custom:025cf-s2" d="M26.5,33.5 L33.5,26.5" />
  <path id="custom:025cf-s3" d="M19.56,52.44 L52.44,19.56" />
  <path id="custom:025cf-s4" d="M20.64,63.36 L63.36,20.64" />
  <path id="custom:025cf-s5" d="M24.12,71.88 L71.88,24.12" />
  <path id="custom:025cf-s6" d="M29.26,78.74 L78.74,29.26" />
  <path id="custom:025cf-s7" d="M35.87,84.13 L84.13,35.87" />
  <path id="custom:025cf-s8" d="M44.09,87.91 L87.91,44.09" />
  <path id="custom:025cf-s9" d="M54.5,89.5 L89.5,54.5" />
  <path id="custom:025cf-s10" d="M70.24,85.76 L85.76,70.24" />
</svg>
