<?xml version="1.0" encoding="UTF-8"?>
<!-- Reviewed centerline stroke data for U+263E. -->
<svg xmlns="http://www.w3.org/2000/svg" viewBox="0 0 109 109">
  <path id="custom:0263e-s1" d="M70.60,24.75 L69.51,23.47 L58.59,24.57 L52.59,26.57 L43.67,32.03 L34.57,43.49 L30.57,57.87 L30.57,65.15 L32.39,74.06 L39.31,86.44 L45.31,92.08 L54.05,96.81 L65.87,99.17 L69.51,99.17 L70.60,97.90" />
  <path id="custom:0263e-s2" d="M70.60,24.75 L69.15,26.75 L57.32,32.39 L50.04,40.58 L45.31,52.95 L44.58,64.60 L48.22,78.79 L55.68,88.98 L61.51,93.17 L69.15,96.08 L70.60,97.90 L78.07,97.72" />
  <path id="custom:0263e-s3" d="M70.42,24.93 L78.07,25.11" />
  <path id="custom:0263e-s4" d="M42.04,33.48 L40.03,35.48" />
  <path id="custom:0263e-s5" d="M40.03,87.35 L42.40,89.71" />
</svg>
