<?xml version="1.0" encoding="UTF-8"?>
<!-- Reviewed centerline stroke data for U+272E. -->
<svg xmlns="http://www.w3.org/2000/svg" viewBox="0 0 109 109">
  <path id="custom:0272e-s1" d="M54.41,23.84 L54.41,36.58" />
  <path id="custom:0272e-s2" d="M14.92,52.04 L26.02,55.32 L46.04,54.41 L52.04,38.03 L54.05,36.58 L55.86,37.30 L62.78,54.41 L82.25,55.32 L80.79,59.32 L68.06,70.42 L72.06,83.89 L72.42,89.35" />
  <path id="custom:0272e-s3" d="M54.41,48.40 L54.41,66.42" />
  <path id="custom:0272e-s4" d="M82.25,55.32 L93.90,52.04" />
  <path id="custom:0272e-s5" d="M27.11,54.77 L28.02,59.32 L40.85,70.33 L36.58,84.43 L36.21,89.71 L29.30,99.17" />
  <path id="custom:0272e-s6" d="M38.21,60.23 L51.50,63.87 L57.87,69.69 L64.78,79.52" />
  <path id="custom:0272e-s7" d="M54.77,66.42 L57.32,63.87 L70.79,60.23" />
  <path id="custom:0272e-s8" d="M56.96,64.24 L54.77,66.42" />
  <path id="custom:0272e-s9" d="M54.05,66.42 L44.04,79.70" />
  <path id="custom:0272e-s10" d="M53.68,66.78 L50.95,69.51" />
  <path id="custom:0272e-s11" d="M36.21,89.35 L41.13,88.26 L52.23,80.79 L54.77,80.25 L67.69,88.26 L72.61,89.35 L79.34,98.99" />
</svg>
