<?xml version="1.0" encoding="UTF-8"?>
<!-- Reviewed centerline stroke data for U+2724. -->
<svg xmlns="http://www.w3.org/2000/svg" viewBox="0 0 109 109">
  <path id="custom:02724-s1" d="M54.5,22 C63,22 68,28 68,36 C68,44 63,49 54.5,49 C46,49 41,44 41,36 C41,28 46,22 54.5,22" />
  <path id="custom:02724-s2" d="M72,48 C80,48 86,53 86,61.5 C86,70 80,75 72,75 C64,75 59,70 59,61.5 C59,53 64,48 72,48" />
  <path id="custom:02724-s3" d="M54.5,69 C63,69 68,74 68,82 C68,90 63,96 54.5,96 C46,96 41,90 41,82 C41,74 46,69 54.5,69" />
  <path id="custom:02724-s4" d="M37,48 C45,48 50,53 50,61.5 C50,70 45,75 37,75 C29,75 23,70 23,61.5 C23,53 29,48 37,48" />
  <path id="custom:02724-s5" d="M54.5,49 L54.5,69" />
  <path id="custom:02724-s6" d="M50,61.5 L59,61.5" />
</svg>
