<?xml version="1.0" encoding="UTF-8"?>
<!-- Reviewed centerline stroke data for U+272D. -->
<svg xmlns="http://www.w3.org/2000/svg" viewBox="0 0 109 109">
  <path id="custom:0272d-s1" d="M54.41,23.66 L54.23,31.48" />
  <path id="custom:0272d-s2" d="M14.92,52.04 L21.65,54.05 L45.49,53.50 L52.95,32.21 L54.23,31.30 L55.86,32.21 L63.33,53.50 L87.35,54.05 L93.90,52.04" />
  <path id="custom:0272d-s3" d="M54.41,44.04 L54.41,66.24" />
  <path id="custom:0272d-s4" d="M22.38,53.68 L23.66,57.14 L40.03,70.24 L33.66,93.35 L29.30,99.36" />
  <path id="custom:0272d-s5" d="M86.80,54.05 L85.53,56.96 L68.97,70.42 L75.15,93.17 L79.34,98.99" />
  <path id="custom:0272d-s6" d="M34.21,58.59 L51.32,63.33 L58.59,70.42 L67.15,82.61" />
  <path id="custom:0272d-s7" d="M74.61,58.59 L57.50,63.33 L50.41,70.24 L41.85,82.80" />
  <path id="custom:0272d-s8" d="M57.50,63.51 L54.41,66.24" />
  <path id="custom:0272d-s9" d="M54.23,66.60 L50.59,70.24" />
  <path id="custom:0272d-s10" d="M33.48,93.35 L36.94,92.44 L54.05,81.16 L71.88,92.26 L75.15,93.17" />
</svg>
