<?xml version="1.0" encoding="UTF-8"?>
<!-- Project-authored centerline stroke data for U+2722. -->
<svg xmlns="http://www.w3.org/2000/svg" viewBox="0 0 109 109">
  <path id="custom:02722-s1" d="M54.5,54.5 C61,43.86 61,30.94 56.97,21.82 C56.77,17.26 52.23,17.26 52.03,21.82 C48,30.94 48,43.86 54.5,54.5" />
  <path id="custom:02722-s2" d="M54.5,54.5 C65.14,61 78.06,61 87.18,56.97 C91.74,56.77 91.74,52.23 87.18,52.03 C78.06,48 65.14,48 54.5,54.5" />
  <path id="custom:02722-s3" d="M54.5,54.5 C48,65.14 48,78.06 52.03,87.18 C52.23,91.74 56.77,91.74 56.97,87.18 C61,78.06 61,65.14 54.5,54.5" />
  <path id="custom:02722-s4" d="M54.5,54.5 C43.86,48 30.94,48 21.82,52.03 C17.26,52.23 17.26,56.78 21.82,56.97 C30.94,61 43.86,61 54.5,54.5" />
</svg>
