<?xml version="1.0" encoding="UTF-8"?>
<!-- Reviewed centerline stroke data for U+272F. -->
<svg xmlns="http://www.w3.org/2000/svg" viewBox="0 0 109 109">
  <path id="custom:0272f-s1" d="M54.41,23.84 L54.41,30.21" />
  <path id="custom:0272f-s2" d="M42.40,56.05 L45.67,52.59 L52.95,31.12 L54.59,30.21 L58.41,50.41 L54.41,65.33 L69.15,65.51" />
  <path id="custom:0272f-s3" d="M58.59,50.59 L62.96,53.14 L89.17,53.50 L93.90,52.04" />
  <path id="custom:0272f-s4" d="M14.92,52.04 L20.38,53.68 L42.04,55.86 L53.86,65.15" />
  <path id="custom:0272f-s5" d="M45.13,53.14 L42.40,56.05" />
  <path id="custom:0272f-s6" d="M88.62,53.50 L87.53,55.86 L68.97,65.51" />
  <path id="custom:0272f-s7" d="M20.56,53.68 L21.29,55.86 L38.76,69.33 L42.22,73.52 L33.48,90.80 L33.12,94.08" />
  <path id="custom:0272f-s8" d="M68.97,65.51 L69.33,71.88 L75.88,94.26 L79.34,98.99" />
  <path id="custom:0272f-s9" d="M53.86,65.87 L42.04,73.52" />
  <path id="custom:0272f-s10" d="M54.41,66.24 L58.05,78.97 L56.05,80.98" />
  <path id="custom:0272f-s11" d="M57.87,78.97 L36.03,93.35 L32.94,94.08 L29.30,99.17" />
  <path id="custom:0272f-s12" d="M58.23,79.16 L73.33,93.53 L75.88,94.08" />
  <path id="custom:0272f-s13" d="M73.15,93.17 L75.70,92.08" />
</svg>
