<?xml version="1.0" encoding="UTF-8"?>
<!-- Reviewed centerline stroke data for U+272C. -->
<svg xmlns="http://www.w3.org/2000/svg" viewBox="0 0 109 109">
  <path id="custom:0272c-s1" d="M54.41,24.02 L54.41,28.57 L55.68,29.30 L64.05,52.59" />
  <path id="custom:0272c-s2" d="M54.41,28.57 L52.95,29.84 L44.95,52.59 L19.83,53.14 L20.93,55.86 L37.49,68.42 L38.94,70.79 L31.84,95.72 L29.12,99.36" />
  <path id="custom:0272c-s3" d="M14.92,52.04 L19.83,53.50" />
  <path id="custom:0272c-s4" d="M63.69,52.77 L89.89,53.32 L93.71,52.23" />
  <path id="custom:0272c-s5" d="M44.95,52.59 L54.41,62.96 L54.59,82.07" />
  <path id="custom:0272c-s6" d="M64.05,52.59 L54.41,62.96" />
  <path id="custom:0272c-s7" d="M89.35,53.32 L87.35,56.41 L71.15,68.60 L69.88,70.79 L76.61,92.26 L76.43,95.17" />
  <path id="custom:0272c-s8" d="M60.78,56.41 L54.77,62.42" />
  <path id="custom:0272c-s9" d="M38.94,70.79 L44.58,69.15 L48.59,65.51 L52.04,65.33 L60.23,65.51 L64.42,69.33 L69.88,70.79" />
  <path id="custom:0272c-s10" d="M47.31,66.24 L44.58,68.97" />
  <path id="custom:0272c-s11" d="M31.66,95.72 L34.57,94.99 L54.59,82.07 L74.24,94.81 L76.61,95.17 L79.34,98.99" />
</svg>
