<?xml version="1.0" encoding="UTF-8"?>
<!-- Reviewed centerline stroke data for U+2725. -->
<svg xmlns="http://www.w3.org/2000/svg" viewBox="0 0 109 109">
  <path id="custom:02725-s1" d="M54.5,22 C59.5,22 63,25.5 63,30.5 C63,35.5 59.5,39 54.5,39 C49.5,39 46,35.5 46,30.5 C46,25.5 49.5,22 54.5,22" />
  <path id="custom:02725-s2" d="M77,53 C82,53 85.5,56.5 85.5,61.5 C85.5,66.5 82,70 77,70 C72,70 68.5,66.5 68.5,61.5 C68.5,56.5 72,53 77,53" />
  <path id="custom:02725-s3" d="M54.5,76 C59.5,76 63,79.5 63,84.5 C63,89.5 59.5,93 54.5,93 C49.5,93 46,89.5 46,84.5 C46,79.5 49.5,76 54.5,76" />
  <path id="custom:02725-s4" d="M32,53 C37,53 40.5,56.5 40.5,61.5 C40.5,66.5 37,70 32,70 C27,70 23.5,66.5 23.5,61.5 C23.5,56.5 27,53 32,53" />
  <path id="custom:02725-s5" d="M54.5,39 L54.5,76" />
  <path id="custom:02725-s6" d="M40.5,61.5 L68.5,61.5" />
</svg>
