<?xml version="1.0" encoding="UTF-8"?>
<!-- Reviewed centerline stroke data for U+2723. -->
<svg xmlns="http://www.w3.org/2000/svg" viewBox="0 0 109 109">
  <path id="custom:02723-s1" d="M54.5,24 C60.5,24 64,29 64,35 C64,41 60.5,46 54.5,46 C48.5,46 45,41 45,35 C45,29 48.5,24 54.5,24" />
  <path id="custom:02723-s2" d="M75,52 C81,52 86,55.5 86,61.5 C86,67.5 81,71 75,71 C69,71 64,67.5 64,61.5 C64,55.5 69,52 75,52" />
  <path id="custom:02723-s3" d="M54.5,72 C60.5,72 64,77 64,83 C64,89 60.5,94 54.5,94 C48.5,94 45,89 45,83 C45,77 48.5,72 54.5,72" />
  <path id="custom:02723-s4" d="M34,52 C40,52 45,55.5 45,61.5 C45,67.5 40,71 34,71 C28,71 23,67.5 23,61.5 C23,55.5 28,52 34,52" />
  <path id="custom:02723-s5" d="M54.5,46 L54.5,72" />
  <path id="custom:02723-s6" d="M45,61.5 L64,61.5" />
</svg>
