<?xml version="1.0" encoding="UTF-8"?>
<!-- Project-authored centerline stroke data for U+273F. -->
<svg xmlns="http://www.w3.org/2000/svg" viewBox="0 0 109 109">
  <path id="custom:0273f-s1" d="M54,54 C40,37 47,18 54,18 C61,18 68,37 54,54" />
  <path id="custom:0273f-s2" d="M54,54 C37,68 18,61 18,54 C18,47 37,40 54,54" />
  <path id="custom:0273f-s3" d="M54,54 C68,71 61,90 54,90 C47,90 40,71 54,54" />
  <path id="custom:0273f-s4" d="M54,54 C71,40 90,47 90,54 C90,61 71,68 54,54" />
  <path id="custom:0273f-s5" d="M47,54 C47,49 51,45 54,45 C59,45 63,49 63,54 C63,59 59,63 54,63 C51,63 47,59 47,54" />
</svg>
