<?xml version="1.0" encoding="UTF-8"?>
<!-- Project-authored centerline stroke data for U+273B. -->
<svg xmlns="http://www.w3.org/2000/svg" viewBox="0 0 109 109">
  <path id="custom:0273b-s1" d="M54.5,54.5 C60.5,44.14 60.5,31.56 56.78,22.68 C56.6,18.24 52.4,18.24 52.22,22.68 C48.5,31.56 48.5,44.14 54.5,54.5" />
  <path id="custom:0273b-s2" d="M54.5,54.5 C66.47,54.52 77.37,48.23 83.2,40.56 C86.95,38.19 84.85,34.55 80.92,36.62 C71.37,37.83 60.47,44.12 54.5,54.5" />
  <path id="custom:0273b-s3" d="M54.5,54.5 C60.47,64.88 71.37,71.17 80.92,72.38 C84.85,74.45 86.95,70.81 83.2,68.44 C77.37,60.77 66.47,54.48 54.5,54.5" />
  <path id="custom:0273b-s4" d="M54.5,54.5 C48.5,64.86 48.5,77.44 52.22,86.32 C52.4,90.76 56.6,90.76 56.78,86.32 C60.5,77.44 60.5,64.86 54.5,54.5" />
  <path id="custom:0273b-s5" d="M54.5,54.5 C42.53,54.48 31.63,60.77 25.8,68.44 C22.05,70.81 24.15,74.45 28.08,72.38 C37.63,71.17 48.53,64.88 54.5,54.5" />
  <path id="custom:0273b-s6" d="M54.5,54.5 C48.53,44.12 37.63,37.83 28.08,36.62 C24.15,34.55 22.05,38.19 25.8,40.56 C31.63,48.23 42.53,54.52 54.5,54.5" />
  <path id="custom:0273b-s7" d="M54.5,50.5 C56.71,50.5 58.5,52.29 58.5,54.5 C58.5,56.71 56.71,58.5 54.5,58.5 C52.29,58.5 50.5,56.71 50.5,54.5 C50.5,52.29 52.29,50.5 54.5,50.5" />
  <path id="custom:0273b-s8" d="M54.5,52.5 C55.6,52.5 56.5,53.4 56.5,54.5 C56.5,55.6 55.6,56.5 54.5,56.5 C53.4,56.5 52.5,55.6 52.5,54.5 C52.5,53.4 53.4,52.5 54.5,52.5" />
</svg>
