<?xml version="1.0" encoding="UTF-8"?>
<!-- Project-authored centerline stroke data for U+2739. -->
<svg xmlns="http://www.w3.org/2000/svg" viewBox="0 0 109 109">
  <path id="custom:02739-s1" d="M54.5,12.5 L60.19,33.25 L75.5,18.13 L70.06,38.94 L90.87,33.5 L75.75,48.81 L96.5,54.5 L75.75,60.19 L90.87,75.5 L70.06,70.06 L75.5,90.87 L60.19,75.75 L54.5,96.5 L48.81,75.75 L33.5,90.87 L38.94,70.06 L18.13,75.5 L33.25,60.19 L12.5,54.5 L33.25,48.81 L18.13,33.5 L38.94,38.94 L33.5,18.13 L48.81,33.25 L54.5,12.5" />
  <path id="custom:02739-s2" d="M18.5,54.5 L90.5,54.5" />
  <path id="custom:02739-s3" d="M23.32,36.5 L85.68,72.5" />
  <path id="custom:02739-s4" d="M36.5,23.32 L72.5,85.68" />
  <path id="custom:02739-s5" d="M54.5,18.5 L54.5,90.5" />
  <path id="custom:02739-s6" d="M72.5,23.32 L36.5,85.68" />
  <path id="custom:02739-s7" d="M85.68,36.5 L23.32,72.5" />
</svg>
