<?xml version="1.0" encoding="UTF-8"?>
<!-- Project-authored centerline stroke data for U+273D. -->
<svg xmlns="http://www.w3.org/2000/svg" viewBox="0 0 109 109">
  <path id="custom:0273d-s1" d="M54.5,54.5 C64.5,43.86 64.5,30.94 58.3,21.82 C58,17.26 51,17.26 50.7,21.82 C44.5,30.94 44.5,43.86 54.5,54.5" />
  <path id="custom:0273d-s2" d="M54.5,54.5 C68.71,57.84 79.9,51.38 84.7,41.45 C88.5,38.91 85,32.85 80.9,34.87 C69.9,34.06 58.71,40.52 54.5,54.5" />
  <path id="custom:0273d-s3" d="M54.5,54.5 C58.71,68.48 69.9,74.94 80.9,74.13 C85,76.15 88.5,70.09 84.7,67.55 C79.9,57.62 68.71,51.16 54.5,54.5" />
  <path id="custom:0273d-s4" d="M54.5,54.5 C44.5,65.14 44.5,78.06 50.7,87.18 C51,91.74 58,91.74 58.3,87.18 C64.5,78.06 64.5,65.14 54.5,54.5" />
  <path id="custom:0273d-s5" d="M54.5,54.5 C40.29,51.16 29.1,57.62 24.3,67.55 C20.5,70.09 24,76.15 28.1,74.13 C39.1,74.94 50.29,68.48 54.5,54.5" />
  <path id="custom:0273d-s6" d="M54.5,54.5 C50.29,40.52 39.1,34.06 28.1,34.87 C24,32.85 20.5,38.91 24.3,41.45 C29.1,51.38 40.29,57.84 54.5,54.5" />
  <path id="custom:0273d-s7" d="M54.5,51.5 C56.16,51.5 57.5,52.84 57.5,54.5 C57.5,56.16 56.16,57.5 54.5,57.5 C52.84,57.5 51.5,56.16 51.5,54.5 C51.5,52.84 52.84,51.5 54.5,51.5" />
</svg>
