<?xml version="1.0" encoding="UTF-8"?>
<!-- Reviewed centerline stroke data for U+273F. -->
<svg xmlns="http://www.w3.org/2000/svg" viewBox="0 0 109 109">
  <path id="custom:0273f-s1" d="M54,55 C43,42 44,20 50,12 C52,17 54,12 57,9 C65,20 66,42 54,55" />
  <path id="custom:0273f-s2" d="M54,55 C65,39 83,34 98,40 C93,44 99,47 103,50 C88,63 68,64 54,55" />
  <path id="custom:0273f-s3" d="M54,55 C70,62 83,78 82,97 C76,94 73,101 71,105 C55,94 48,73 54,55" />
  <path id="custom:0273f-s4" d="M54,55 C52,73 44,94 28,104 C27,98 20,98 15,99 C13,80 29,63 54,55" />
  <path id="custom:0273f-s5" d="M54,55 C35,65 16,61 5,49 C10,46 6,41 3,38 C19,28 40,36 54,55" />
  <path id="custom:0273f-s6" d="M46,55 C46,50 50,46 54,46 C59,46 63,50 63,55 C63,60 59,64 54,64 C50,64 46,60 46,55" />
</svg>
