<?xml version="1.0" encoding="UTF-8"?>
<!-- Project-authored centerline stroke data for U+2735. -->
<svg xmlns="http://www.w3.org/2000/svg" viewBox="0 0 109 109">
  <path id="custom:02735-s1" d="M54.5,13.5 L63.07,40.99 L83.49,25.51 L70.11,51.01 L95.5,54.5 L68.01,63.07 L83.49,83.49 L57.99,70.11 L54.5,95.5 L45.93,68.01 L25.51,83.49 L38.89,57.99 L13.5,54.5 L40.99,45.93 L25.51,25.51 L51.01,38.89 L54.5,13.5" />
  <path id="custom:02735-s2" d="M56.11,51.97 L62.54,41.84" />
  <path id="custom:02735-s3" d="M57.43,53.85 L69.14,51.23" />
  <path id="custom:02735-s4" d="M57.03,56.11 L67.16,62.54" />
  <path id="custom:02735-s5" d="M55.15,57.43 L57.77,69.14" />
  <path id="custom:02735-s6" d="M52.89,57.03 L46.46,67.16" />
  <path id="custom:02735-s7" d="M51.57,55.15 L39.86,57.77" />
  <path id="custom:02735-s8" d="M51.97,52.89 L41.84,46.46" />
  <path id="custom:02735-s9" d="M53.85,51.57 L51.23,39.86" />
</svg>
