<?xml version="1.0" encoding="UTF-8"?>
<!-- Project-authored centerline stroke data for U+273E. -->
<svg xmlns="http://www.w3.org/2000/svg" viewBox="0 0 109 109">
  <path id="custom:0273e-s1" d="M54.5,54.5 C64.5,44.42 64.5,32.18 58.3,23.54 C58,19.22 51,19.22 50.7,23.54 C44.5,32.18 44.5,44.42 54.5,54.5" />
  <path id="custom:0273e-s2" d="M54.5,54.5 C68.23,58.12 78.83,52 83.21,42.31 C86.8,39.89 83.3,33.83 79.41,35.73 C68.83,34.68 58.23,40.8 54.5,54.5" />
  <path id="custom:0273e-s3" d="M54.5,54.5 C58.23,68.2 68.83,74.32 79.41,73.27 C83.3,75.17 86.8,69.11 83.21,66.69 C78.83,57 68.23,50.88 54.5,54.5" />
  <path id="custom:0273e-s4" d="M54.5,54.5 C44.5,64.58 44.5,76.82 50.7,85.46 C51,89.78 58,89.78 58.3,85.46 C64.5,76.82 64.5,64.58 54.5,54.5" />
  <path id="custom:0273e-s5" d="M54.5,54.5 C40.77,50.88 30.17,57 25.79,66.69 C22.2,69.11 25.7,75.17 29.59,73.27 C40.17,74.32 50.77,68.2 54.5,54.5" />
  <path id="custom:0273e-s6" d="M54.5,54.5 C50.77,40.8 40.17,34.68 29.59,35.73 C25.7,33.83 22.2,39.89 25.79,42.31 C30.17,52 40.77,58.12 54.5,54.5" />
  <path id="custom:0273e-s7" d="M54.5,51.5 C56.16,51.5 57.5,52.84 57.5,54.5 C57.5,56.16 56.16,57.5 54.5,57.5 C52.84,57.5 51.5,56.16 51.5,54.5 C51.5,52.84 52.84,51.5 54.5,51.5" />
  <path id="custom:0273e-s8" d="M54.5,48.5 L54.5,25.5" />
  <path id="custom:0273e-s9" d="M59.7,57.5 L79.61,69" />
  <path id="custom:0273e-s10" d="M49.3,57.5 L29.39,69" />
</svg>
