<?xml version="1.0" encoding="UTF-8"?>
<!-- Reviewed centerline stroke data for U+2741. -->
<svg xmlns="http://www.w3.org/2000/svg" viewBox="0 0 109 109">
  <path id="custom:02741-s1" d="M49.13,49.31 L44.58,36.94 L44.76,32.03 L46.77,26.75 L51.13,23.66 L58.59,23.84 L63.51,28.75 L64.60,36.58 L60.05,48.04 L60.60,50.22 L64.42,51.50 L73.33,42.76" />
  <path id="custom:02741-s2" d="M44.76,36.03 L35.30,31.30 L31.66,31.66 L27.84,34.21 L24.93,38.21 L24.57,42.58 L29.12,51.50" />
  <path id="custom:02741-s3" d="M64.60,36.03 L73.88,31.30 L77.52,31.66 L80.43,33.48 L83.34,36.58 L84.62,41.67 L79.88,51.32" />
  <path id="custom:02741-s4" d="M80.61,33.48 L82.61,35.48" />
  <path id="custom:02741-s5" d="M54.59,34.39 L54.59,47.49 L55.86,48.77 L59.87,49.13" />
  <path id="custom:02741-s6" d="M35.67,42.40 L44.58,51.50 L54.59,47.49" />
  <path id="custom:02741-s7" d="M54.59,47.49 L53.50,48.59" />
  <path id="custom:02741-s8" d="M44.58,51.50 L42.58,56.05 L30.03,51.32 L22.38,52.23 L18.38,55.14 L16.38,60.23 L17.11,65.69 L21.29,70.06 L29.66,71.51 L42.58,66.78 L44.40,71.70" />
  <path id="custom:02741-s9" d="M64.42,51.50 L66.42,56.05 L79.16,51.32 L86.80,52.23 L91.17,55.68 L92.62,60.41 L90.98,67.51 L86.44,70.60 L79.34,71.51 L66.42,66.78 L64.42,71.33" />
  <path id="custom:02741-s10" d="M42.40,56.05 L40.58,61.32" />
  <path id="custom:02741-s11" d="M66.60,56.05 L68.24,61.32" />
  <path id="custom:02741-s12" d="M27.48,61.32 L40.58,61.32 L41.67,60.23" />
  <path id="custom:02741-s13" d="M40.58,61.32 L41.85,62.60 L42.40,66.78" />
  <path id="custom:02741-s14" d="M66.42,66.96 L68.24,61.32 L81.52,61.51" />
  <path id="custom:02741-s15" d="M35.85,80.25 L44.58,71.33 L54.59,75.15" />
  <path id="custom:02741-s16" d="M49.13,73.52 L44.40,86.44 L44.76,90.80 L46.58,95.90 L52.04,99.36 L60.23,98.08 L63.87,92.99 L64.60,86.25 L60.05,74.97 L60.78,72.42 L64.42,71.33 L73.33,80.07" />
  <path id="custom:02741-s17" d="M80.07,71.33 L84.62,81.16 L82.07,87.89 L78.97,90.44 L74.61,91.53 L64.60,86.80" />
  <path id="custom:02741-s18" d="M29.30,71.51 L24.57,80.25 L24.75,84.07 L26.93,87.71 L30.21,90.44 L34.39,91.53 L38.21,90.62 L44.40,86.80" />
  <path id="custom:02741-s19" d="M59.87,73.70 L54.59,75.15 L54.59,88.44" />
</svg>
