<?xml version="1.0" encoding="UTF-8"?>
<!-- Project-authored centerline stroke data for U+274B. -->
<svg xmlns="http://www.w3.org/2000/svg" viewBox="0 0 109 109">
  <path id="custom:0274b-s1" d="M54.5,54.5 C44,43 44,27 54.5,12 C65,27 65,43 54.5,54.5" />
  <path id="custom:0274b-s2" d="M54.5,54.5 C54.85,39.29 66.16,27.98 82.93,26.07 C81.02,42.84 69.71,54.15 54.5,54.5" />
  <path id="custom:0274b-s3" d="M54.5,54.5 C66,44 82,44 97,54.5 C82,65 66,65 54.5,54.5" />
  <path id="custom:0274b-s4" d="M54.5,54.5 C69.71,54.85 81.02,66.16 82.93,82.93 C66.16,81.02 54.85,69.71 54.5,54.5" />
  <path id="custom:0274b-s5" d="M54.5,54.5 C65,66 65,82 54.5,97 C44,82 44,66 54.5,54.5" />
  <path id="custom:0274b-s6" d="M54.5,54.5 C54.15,69.71 42.84,81.02 26.07,82.93 C27.98,66.16 39.29,54.85 54.5,54.5" />
  <path id="custom:0274b-s7" d="M54.5,54.5 C43,65 27,65 12,54.5 C27,44 43,44 54.5,54.5" />
  <path id="custom:0274b-s8" d="M54.5,54.5 C39.29,54.15 27.98,42.84 26.07,26.07 C42.84,27.98 54.15,39.29 54.5,54.5" />
</svg>
