<?xml version="1.0" encoding="UTF-8"?>
<!-- Project-authored centerline stroke data for U+2743. -->
<svg xmlns="http://www.w3.org/2000/svg" viewBox="0 0 109 109">
  <path id="custom:02743-s1" d="M54.5,54.5 C62,43 63,29 57.5,18 C53,15 49,18 49.5,23 C45,34 46,46 54.5,54.5" />
  <path id="custom:02743-s2" d="M54.5,54.5 C68.2,55.2 79.8,48.5 84.8,39 C84.5,33.5 79.5,32 76.5,36 C65.5,37.5 56.5,44 54.5,54.5" />
  <path id="custom:02743-s3" d="M54.5,54.5 C61.5,66.3 73.2,73 84,72 C88.5,69.2 87.5,64 82.8,62.2 C76.2,53.2 65.5,49.8 54.5,54.5" />
  <path id="custom:02743-s4" d="M54.5,54.5 C47,66 46,80 51.5,91 C56,94 60,91 59.5,86 C64,75 63,63 54.5,54.5" />
  <path id="custom:02743-s5" d="M54.5,54.5 C40.8,53.8 29.2,60.5 24.2,70 C24.5,75.5 29.5,77 32.5,73 C43.5,71.5 52.5,65 54.5,54.5" />
  <path id="custom:02743-s6" d="M54.5,54.5 C47.5,42.7 35.8,36 25,37 C20.5,39.8 21.5,45 26.2,46.8 C32.8,55.8 43.5,59.2 54.5,54.5" />
</svg>
