<?xml version="1.0" encoding="UTF-8"?>
<!-- Project-authored centerline stroke data for U+274A. -->
<svg xmlns="http://www.w3.org/2000/svg" viewBox="0 0 109 109">
  <path id="custom:0274a-s1" d="M54.5,54.5 C48,44 48,30 54.5,16 C61,30 61,44 54.5,54.5" />
  <path id="custom:0274a-s2" d="M54.5,54.5 C57.33,42.83 67.23,32.93 81.73,27.27 C76.07,41.77 66.17,51.67 54.5,54.5" />
  <path id="custom:0274a-s3" d="M54.5,54.5 C65,48 79,48 93,54.5 C79,61 65,61 54.5,54.5" />
  <path id="custom:0274a-s4" d="M54.5,54.5 C66.17,57.33 76.07,67.23 81.73,81.73 C67.23,76.07 57.33,66.17 54.5,54.5" />
  <path id="custom:0274a-s5" d="M54.5,54.5 C61,65 61,79 54.5,93 C48,79 48,65 54.5,54.5" />
  <path id="custom:0274a-s6" d="M54.5,54.5 C51.67,66.17 41.77,76.07 27.27,81.73 C32.93,67.23 42.83,57.33 54.5,54.5" />
  <path id="custom:0274a-s7" d="M54.5,54.5 C44,61 30,61 16,54.5 C30,48 44,48 54.5,54.5" />
  <path id="custom:0274a-s8" d="M54.5,54.5 C42.83,51.67 32.93,41.77 27.27,27.27 C41.77,32.93 51.67,42.83 54.5,54.5" />
</svg>
