<?xml version="1.0" encoding="UTF-8"?>
<!-- Project-authored centerline stroke data for U+2749. -->
<svg xmlns="http://www.w3.org/2000/svg" viewBox="0 0 109 109">
  <path id="custom:02749-s1" d="M54.5,54.5 L54.5,27 C48.5,27 48.5,16 54.5,16 C60.5,16 60.5,27 54.5,27" />
  <path id="custom:02749-s2" d="M54.5,54.5 L73.95,35.05 C69.71,30.81 77.49,23.03 81.73,27.27 C85.97,31.51 78.19,39.29 73.95,35.05" />
  <path id="custom:02749-s3" d="M54.5,54.5 L82,54.5 C82,48.5 93,48.5 93,54.5 C93,60.5 82,60.5 82,54.5" />
  <path id="custom:02749-s4" d="M54.5,54.5 L73.95,73.95 C78.19,69.71 85.97,77.49 81.73,81.73 C77.49,85.97 69.71,78.19 73.95,73.95" />
  <path id="custom:02749-s5" d="M54.5,54.5 L54.5,82 C60.5,82 60.5,93 54.5,93 C48.5,93 48.5,82 54.5,82" />
  <path id="custom:02749-s6" d="M54.5,54.5 L35.05,73.95 C39.29,78.19 31.51,85.97 27.27,81.73 C23.03,77.49 30.81,69.71 35.05,73.95" />
  <path id="custom:02749-s7" d="M54.5,54.5 L27,54.5 C27,60.5 16,60.5 16,54.5 C16,48.5 27,48.5 27,54.5" />
  <path id="custom:02749-s8" d="M54.5,54.5 L35.05,35.05 C30.81,39.29 23.03,31.51 27.27,27.27 C31.51,23.03 39.29,30.81 35.05,35.05" />
</svg>
