<?xml version="1.0" encoding="UTF-8"?>
<!-- Project-authored centerline stroke data for U+2742. -->
<svg xmlns="http://www.w3.org/2000/svg" viewBox="0 0 109 109">
  <path id="custom:02742-s1" d="M54.5,15.5 C76.04,15.5 93.5,32.96 93.5,54.5 C93.5,76.04 76.04,93.5 54.5,93.5 C32.96,93.5 15.5,76.04 15.5,54.5 C15.5,32.96 32.96,15.5 54.5,15.5" />
  <path id="custom:02742-s2" d="M54.5,37.5 C63.89,37.5 71.5,45.11 71.5,54.5 C71.5,63.89 63.89,71.5 54.5,71.5 C45.11,71.5 37.5,63.89 37.5,54.5 C37.5,45.11 45.11,37.5 54.5,37.5" />
  <path id="custom:02742-s3" d="M54.5,33.5 L54.5,22" />
  <path id="custom:02742-s4" d="M69.35,39.65 L77.48,31.52" />
  <path id="custom:02742-s5" d="M75.5,54.5 L87,54.5" />
  <path id="custom:02742-s6" d="M69.35,69.35 L77.48,77.48" />
  <path id="custom:02742-s7" d="M54.5,75.5 L54.5,87" />
  <path id="custom:02742-s8" d="M39.65,69.35 L31.52,77.48" />
  <path id="custom:02742-s9" d="M33.5,54.5 L22,54.5" />
  <path id="custom:02742-s10" d="M39.65,39.65 L31.52,31.52" />
</svg>
