<?xml version="1.0" encoding="UTF-8"?>
<!-- Project-authored centerline stroke data for U+2740. -->
<svg xmlns="http://www.w3.org/2000/svg" viewBox="0 0 109 109">
  <path id="custom:02740-s1" d="M54.5,54.5 C70.1,40.46 70.1,23.14 61.05,12.38 L54.5,18.46 L47.95,12.38 C38.9,23.14 38.9,40.46 54.5,54.5" />
  <path id="custom:02740-s2" d="M54.5,54.5 C72.67,65 89.14,59.65 96.58,47.72 L88.77,43.36 L92.53,35.25 C79.5,29.97 63.03,35.32 54.5,54.5" />
  <path id="custom:02740-s3" d="M54.5,54.5 C50.13,75.03 60.31,89.04 73.95,92.43 L75.68,83.65 L84.56,84.73 C85.56,70.7 75.37,56.68 54.5,54.5" />
  <path id="custom:02740-s4" d="M54.5,54.5 C33.63,56.68 23.44,70.7 24.44,84.73 L33.32,83.65 L35.05,92.43 C48.69,89.04 58.87,75.03 54.5,54.5" />
  <path id="custom:02740-s5" d="M54.5,54.5 C45.97,35.32 29.5,29.97 16.47,35.25 L20.23,43.36 L12.42,47.72 C19.86,59.65 36.33,65 54.5,54.5" />
</svg>
