<?xml version="1.0" encoding="UTF-8"?>
<!-- Project-authored centerline stroke data for U+2753. -->
<svg xmlns="http://www.w3.org/2000/svg" viewBox="0 0 109 109">
  <path id="custom:02753-s1" d="M31,32 C32,16 44,9 59,10 C75,11 85,22 82,38 C80,50 69,55 62,61 C57,65 56,69 56,75 L47,75 C47,66 49,60 55,55 C62,49 72,46 73,37 C75,27 68,20 59,19 C49,18 41,23 40,34 L31,32" />
  <path id="custom:02753-s2" d="M53,83 C57.42,83 61,86.58 61,91 C61,95.42 57.42,99 53,99 C48.58,99 45,95.42 45,91 C45,86.58 48.58,83 53,83" />
</svg>
