<?xml version="1.0" encoding="UTF-8"?>
<!-- Project-authored centerline stroke data for U+275D. -->
<svg xmlns="http://www.w3.org/2000/svg" viewBox="0 0 109 109">
  <path id="custom:0275d-s1" d="M38,31 C44,31 48,35 48,41 C48,47 44,51 38,51 C32,51 28,47 28,41 C28,35 32,31 38,31" />
  <path id="custom:0275d-s2" d="M38,35 C42,35 44,37.5 44,41 C44,44.5 42,47 38,47 C34,47 32,44.5 32,41 C32,37.5 34,35 38,35" />
  <path id="custom:0275d-s3" d="M38,31 C38,24 42,20 48,18" />
  <path id="custom:0275d-s4" d="M70,31 C76,31 80,35 80,41 C80,47 76,51 70,51 C64,51 60,47 60,41 C60,35 64,31 70,31" />
  <path id="custom:0275d-s5" d="M70,35 C74,35 76,37.5 76,41 C76,44.5 74,47 70,47 C66,47 64,44.5 64,41 C64,37.5 66,35 70,35" />
  <path id="custom:0275d-s6" d="M70,31 C70,24 74,20 80,18" />
</svg>
