<?xml version="1.0" encoding="UTF-8"?>
<!-- Project-authored centerline stroke data for U+2754. -->
<svg xmlns="http://www.w3.org/2000/svg" viewBox="0 0 109 109">
  <path id="custom:02754-s1" d="M31,32 C32,16 44,9 59,10 C75,11 85,22 82,38 C80,50 69,55 62,61 C57,65 56,69 56,75 L47,75 C47,66 49,60 55,55 C62,49 72,46 73,37 C75,27 68,20 59,19 C49,18 41,23 40,34 L31,32" />
  <path id="custom:02754-s2" d="M53,84 C56.87,84 60,87.13 60,91 C60,94.87 56.87,98 53,98 C49.13,98 46,94.87 46,91 C46,87.13 49.13,84 53,84" />
</svg>
