<?xml version="1.0" encoding="UTF-8"?>
<!-- Project-authored centerline stroke data for U+275E. -->
<svg xmlns="http://www.w3.org/2000/svg" viewBox="0 0 109 109">
  <path id="custom:0275e-s1" d="M39,17 C45,17 49,21 49,27 C49,33 45,37 39,37 C33,37 29,33 29,27 C29,21 33,17 39,17" />
  <path id="custom:0275e-s2" d="M39,21 C43,21 45,23.5 45,27 C45,30.5 43,33 39,33 C35,33 33,30.5 33,27 C33,23.5 35,21 39,21" />
  <path id="custom:0275e-s3" d="M39,37 C39,44 35,48 29,50" />
  <path id="custom:0275e-s4" d="M71,17 C77,17 81,21 81,27 C81,33 77,37 71,37 C65,37 61,33 61,27 C61,21 65,17 71,17" />
  <path id="custom:0275e-s5" d="M71,21 C75,21 77,23.5 77,27 C77,30.5 75,33 71,33 C67,33 65,30.5 65,27 C65,23.5 67,21 71,21" />
  <path id="custom:0275e-s6" d="M71,37 C71,44 67,48 61,50" />
</svg>
