<?xml version="1.0" encoding="UTF-8"?>
<!-- Project-authored centerline stroke data for U+2760. -->
<svg xmlns="http://www.w3.org/2000/svg" viewBox="0 0 109 109">
  <path id="custom:02760-s1" d="M39,58 C45,58 49,62 49,68 C49,74 45,78 39,78 C33,78 29,74 29,68 C29,62 33,58 39,58" />
  <path id="custom:02760-s2" d="M39,62 C43,62 45,64.5 45,68 C45,71.5 43,74 39,74 C35,74 33,71.5 33,68 C33,64.5 35,62 39,62" />
  <path id="custom:02760-s3" d="M39,78 C39,85 35,89 29,91" />
  <path id="custom:02760-s4" d="M71,58 C77,58 81,62 81,68 C81,74 77,78 71,78 C65,78 61,74 61,68 C61,62 65,58 71,58" />
  <path id="custom:02760-s5" d="M71,62 C75,62 77,64.5 77,68 C77,71.5 75,74 71,74 C67,74 65,71.5 65,68 C65,64.5 67,62 71,62" />
  <path id="custom:02760-s6" d="M71,78 C71,85 67,89 61,91" />
</svg>
