<?xml version="1.0" encoding="UTF-8"?>
<!-- Project-authored centerline stroke data for U+29BF. -->
<svg xmlns="http://www.w3.org/2000/svg" viewBox="0 0 109 109">
  <path id="custom:029bf-s1" d="M54.5,17.5 C74.93,17.5 91.5,34.07 91.5,54.5 C91.5,74.93 74.93,91.5 54.5,91.5 C34.07,91.5 17.5,74.93 17.5,54.5 C17.5,34.07 34.07,17.5 54.5,17.5" />
  <path id="custom:029bf-s2" d="M54.5,43 C60.85,43 66,48.15 66,54.5 C66,60.85 60.85,66 54.5,66 C48.15,66 43,60.85 43,54.5 C43,48.15 48.15,43 54.5,43" />
  <path id="custom:029bf-s3" d="M54.5,48 C58.09,48 61,50.91 61,54.5 C61,58.09 58.09,61 54.5,61 C50.91,61 48,58.09 48,54.5 C48,50.91 50.91,48 54.5,48" />
</svg>
